<?xml version="1.0" encoding="UTF-8"?>
<svg xmlns="http://www.w3.org/2000/svg" xmlns:xlink="http://www.w3.org/1999/xlink" width="504pt" height="359.999987pt" viewBox="0 0 504 359.999987" version="1.2">
<defs>
<clipPath id="clip1">
  <path d="M 61 243 L 397.8125 243 L 397.8125 346.5 L 61 346.5 Z M 61 243 "/>
</clipPath>
<clipPath id="clip2">
  <path d="M 68 243 L 397.8125 243 L 397.8125 346.5 L 68 346.5 Z M 68 243 "/>
</clipPath>
</defs>
<g id="surface1">
<g clip-path="url(#clip1)" clip-rule="nonzero">
<path style=" stroke:none;fill-rule:nonzero;fill:rgb(30.979919%,18.429565%,50.979614%);fill-opacity:1;" d="M 360.765625 255.742188 C 356.652344 253.078125 346.226562 247.152344 332.53125 243.078125 C 332.4375 243.128906 325.945312 246.378906 315.648438 247.296875 C 313.191406 247.703125 310.214844 248.191406 306.792969 248.761719 C 305.085938 249.046875 303.269531 249.347656 301.347656 249.660156 C 299.425781 249.953125 297.382812 250.199219 295.269531 250.484375 C 291.03125 251.046875 286.433594 251.652344 281.578125 252.296875 C 276.707031 252.898438 271.527344 253.320312 266.195312 253.871094 C 260.867188 254.472656 255.304688 254.777344 249.664062 255.136719 C 246.839844 255.308594 244.007812 255.535156 241.140625 255.652344 C 238.269531 255.734375 235.386719 255.820312 232.5 255.910156 C 229.617188 255.964844 226.746094 256.132812 223.859375 256.097656 C 220.972656 256.085938 218.097656 256.066406 215.246094 256.046875 C 213.820312 256.039062 212.398438 256.035156 210.984375 256.027344 C 209.566406 255.996094 208.152344 255.917969 206.746094 255.863281 C 203.9375 255.746094 201.164062 255.632812 198.433594 255.519531 C 195.707031 255.410156 192.996094 255.132812 190.359375 254.949219 C 187.71875 254.71875 185.144531 254.59375 182.617188 254.265625 C 180.089844 253.980469 177.632812 253.699219 175.25 253.425781 C 172.878906 253.15625 170.554688 252.746094 168.34375 252.421875 C 167.238281 252.257812 166.148438 252.089844 165.089844 251.929688 C 164.027344 251.757812 162.976562 251.542969 161.964844 251.355469 C 159.921875 250.964844 158 250.628906 156.175781 250.238281 C 154.335938 249.820312 152.621094 249.429688 151.03125 249.066406 C 149.449219 248.714844 147.929688 248.269531 146.59375 247.925781 C 145.269531 247.585938 144.019531 247.210938 142.929688 246.875 C 141.835938 246.535156 140.988281 246.292969 139.976562 245.925781 C 139.492188 245.757812 139.070312 245.609375 138.710938 245.480469 L 138.742188 245.4375 C 129.664062 250.003906 120.144531 252.796875 110.230469 254.894531 C 93.945312 258.34375 77.816406 257.160156 61.308594 258.007812 C 61.742188 260.792969 64.621094 263.429688 66.265625 265.960938 C 70.53125 272.503906 74.582031 278.859375 79.339844 285.085938 C 91.242188 300.660156 104.5625 314.707031 121.042969 325.636719 C 140.761719 338.707031 168.085938 346.082031 191.578125 346.28125 C 220.882812 346.527344 249.335938 333.800781 275.324219 323.1875 C 307.539062 310.027344 335.429688 296.726562 369.730469 304.855469 C 379.773438 307.238281 389.910156 312.078125 397.257812 318.421875 C 396.117188 292.378906 382.53125 269.832031 360.765625 255.742188 "/>
</g>
<path style=" stroke:none;fill-rule:nonzero;fill:rgb(36.079407%,18.818665%,52.549744%);fill-opacity:1;" d="M 173.402344 309.765625 C 142.976562 309.765625 113.121094 292.085938 90.0625 269.433594 C 90.261719 269.433594 90.457031 269.433594 90.65625 269.433594 C 106.097656 269.433594 121.511719 263.71875 135.535156 257.007812 C 147.90625 264.082031 162.707031 266.082031 178.515625 266.082031 C 188.785156 266.082031 199.484375 265.238281 210.207031 264.390625 C 220.941406 263.550781 231.699219 262.707031 242.097656 262.707031 C 252.898438 262.707031 263.3125 263.617188 272.894531 266.382812 C 274.042969 266.382812 277.480469 269.828125 276.332031 269.828125 C 248.804688 279.007812 227.007812 295.074219 201.773438 304.253906 C 192.382812 308.054688 182.871094 309.765625 173.402344 309.765625 "/>
<g clip-path="url(#clip2)" clip-rule="nonzero">
<path style=" stroke:none;fill-rule:nonzero;fill:rgb(27.449036%,17.649841%,50.19989%);fill-opacity:1;" d="M 360.765625 255.742188 C 356.652344 253.078125 346.226562 247.152344 332.53125 243.078125 C 332.4375 243.128906 325.945312 246.378906 315.648438 247.296875 C 313.191406 247.703125 310.214844 248.191406 306.792969 248.761719 C 305.085938 249.046875 303.269531 249.347656 301.347656 249.660156 C 299.425781 249.953125 297.382812 250.199219 295.269531 250.484375 C 293.941406 250.664062 292.558594 250.84375 291.164062 251.027344 C 300.765625 257.839844 313.28125 261.46875 324.515625 266.382812 C 330.25 268.679688 349.175781 282.476562 332.542969 281.304688 C 302.722656 277.863281 268.304688 276.714844 245.363281 297.371094 C 217.832031 322.613281 184.566406 332.945312 149.007812 323.761719 C 116.238281 315.566406 87.816406 295.808594 68.304688 269.082031 C 71.84375 274.53125 75.339844 279.855469 79.339844 285.085938 C 91.242188 300.660156 104.5625 314.707031 121.042969 325.636719 C 140.761719 338.707031 168.085938 346.082031 191.578125 346.28125 C 220.882812 346.527344 249.335938 333.800781 275.324219 323.1875 C 307.539062 310.027344 335.429688 296.726562 369.730469 304.855469 C 379.773438 307.238281 389.910156 312.078125 397.257812 318.421875 C 396.117188 292.378906 382.53125 269.832031 360.765625 255.742188 "/>
</g>
<path style=" stroke:none;fill-rule:nonzero;fill:rgb(97.648621%,68.629456%,12.548828%);fill-opacity:1;" d="M 200.613281 277.839844 L 203.902344 274.316406 L 208.675781 275.023438 L 206.339844 270.804688 L 208.492188 266.488281 L 203.753906 267.402344 L 200.316406 264.023438 L 199.722656 268.8125 L 195.445312 271.035156 L 199.8125 273.082031 L 200.613281 277.839844 "/>
<path style=" stroke:none;fill-rule:nonzero;fill:rgb(97.648621%,68.629456%,12.548828%);fill-opacity:1;" d="M 143.878906 320.917969 L 146.855469 316.445312 L 151.9375 318.105469 L 149.605469 313.878906 L 151.757812 309.558594 L 147.015625 310.476562 L 143.578125 307.097656 L 142.988281 311.886719 L 138.707031 314.109375 L 143.078125 316.15625 L 143.878906 320.917969 "/>
<path style=" stroke:none;fill-rule:nonzero;fill:rgb(97.648621%,68.629456%,12.548828%);fill-opacity:1;" d="M 234.175781 331.238281 L 237.464844 327.71875 L 242.238281 328.425781 L 239.902344 324.203125 L 242.054688 319.890625 L 237.316406 320.804688 L 233.878906 317.421875 L 233.285156 322.214844 L 229.007812 324.441406 L 233.378906 326.484375 L 234.175781 331.238281 "/>
<path style=" stroke:none;fill-rule:nonzero;fill:rgb(97.648621%,68.629456%,12.548828%);fill-opacity:1;" d="M 271.230469 277.203125 L 274.523438 273.675781 L 279.289062 274.386719 L 276.957031 270.164062 L 279.105469 265.851562 L 274.375 266.769531 L 270.929688 263.386719 L 270.34375 268.175781 L 266.0625 270.402344 L 270.433594 272.449219 L 271.230469 277.203125 "/>
<path style=" stroke:none;fill-rule:nonzero;fill:rgb(97.648621%,68.629456%,12.548828%);fill-opacity:1;" d="M 309.914062 306.96875 L 312.066406 302.652344 L 307.335938 303.570312 L 303.890625 300.1875 L 303.300781 304.976562 L 299.019531 307.203125 L 303.394531 309.242188 L 303.816406 311.757812 C 306.265625 310.855469 308.703125 309.996094 311.144531 309.191406 L 309.914062 306.96875 "/>
<path style=" stroke:none;fill-rule:nonzero;fill:rgb(97.648621%,68.629456%,12.548828%);fill-opacity:1;" d="M 350.933594 258.117188 L 354.230469 254.589844 L 358.996094 255.300781 L 358.449219 254.3125 C 356.1875 252.972656 353.070312 251.265625 349.285156 249.484375 L 345.769531 251.316406 L 350.140625 253.355469 L 350.933594 258.117188 "/>
<path style=" stroke:none;fill-rule:nonzero;fill:rgb(97.648621%,68.629456%,12.548828%);fill-opacity:1;" d="M 126.082031 257.054688 L 123.746094 252.828125 L 124.574219 251.160156 C 121.316406 252.199219 118.007812 253.105469 114.648438 253.898438 L 117.222656 255.105469 L 118.019531 259.867188 L 121.3125 256.335938 L 126.082031 257.054688 "/>
<path style=" stroke:none;fill-rule:nonzero;fill:rgb(97.648621%,68.629456%,12.548828%);fill-opacity:1;" d="M 163.765625 282.476562 C 169.691406 282.476562 174.703125 278.609375 176.441406 273.269531 C 174.304688 274.734375 171.71875 275.589844 168.933594 275.589844 C 161.566406 275.589844 155.597656 269.613281 155.597656 262.246094 C 155.597656 260.804688 155.828125 259.417969 156.253906 258.117188 C 152.742188 260.519531 150.433594 264.554688 150.433594 269.132812 C 150.433594 276.5 156.402344 282.476562 163.765625 282.476562 "/>
<path style=" stroke:none;fill-rule:nonzero;fill:rgb(97.648621%,68.629456%,12.548828%);fill-opacity:1;" d="M 370.878906 298.824219 C 376.796875 298.824219 381.8125 294.957031 383.546875 289.613281 C 381.40625 291.074219 378.824219 291.9375 376.035156 291.9375 C 368.675781 291.9375 362.703125 285.964844 362.703125 278.59375 C 362.703125 277.152344 362.941406 275.765625 363.363281 274.464844 C 359.84375 276.863281 357.539062 280.90625 357.539062 285.480469 C 357.539062 292.847656 363.507812 298.824219 370.878906 298.824219 "/>
<path style=" stroke:none;fill-rule:nonzero;fill:rgb(97.648621%,68.629456%,12.548828%);fill-opacity:1;" d="M 249.699219 309.285156 C 257.453125 309.285156 264.019531 304.226562 266.296875 297.230469 C 263.496094 299.144531 260.113281 300.265625 256.460938 300.265625 C 246.820312 300.265625 239 292.453125 239 282.804688 C 239 280.914062 239.3125 279.097656 239.867188 277.386719 C 235.265625 280.539062 232.242188 285.820312 232.242188 291.820312 C 232.242188 301.464844 240.058594 309.285156 249.699219 309.285156 "/>
<path style=" stroke:none;fill-rule:nonzero;fill:rgb(97.648621%,68.629456%,12.548828%);fill-opacity:1;" d="M 94.90625 285.457031 L 96.792969 296.71875 L 104.578125 288.375 L 115.867188 290.0625 L 110.34375 280.070312 L 115.433594 269.851562 L 104.230469 272.023438 L 96.089844 264.023438 L 94.691406 275.351562 L 84.566406 280.628906 L 94.90625 285.457031 "/>
<path style=" stroke:none;fill-rule:nonzero;fill:rgb(97.648621%,68.629456%,12.548828%);fill-opacity:1;" d="M 182.136719 326.003906 L 184.019531 337.257812 L 191.808594 328.917969 L 203.097656 330.605469 L 197.566406 320.617188 L 202.65625 310.398438 L 191.453125 312.566406 L 183.316406 304.570312 L 181.914062 315.902344 L 171.792969 321.171875 L 182.136719 326.003906 "/>
<path style=" stroke:none;fill-rule:nonzero;fill:rgb(97.648621%,68.629456%,12.548828%);fill-opacity:1;" d="M 297.105469 279.550781 L 298.988281 290.8125 L 306.78125 282.464844 L 318.066406 284.152344 L 312.539062 274.164062 L 317.632812 263.945312 L 306.429688 266.113281 L 298.285156 258.117188 L 296.890625 269.449219 L 286.765625 274.71875 L 297.105469 279.550781 "/>
<path style=" stroke:none;fill-rule:nonzero;fill:rgb(97.648621%,68.629456%,12.548828%);fill-opacity:1;" d="M 169.640625 240.4375 L 171.792969 236.121094 L 167.054688 237.039062 L 163.613281 233.652344 L 163.023438 238.445312 L 158.953125 240.566406 L 169.714844 240.566406 L 169.640625 240.4375 "/>
<path style=" stroke:none;fill-rule:nonzero;fill:rgb(97.648621%,68.629456%,12.548828%);fill-opacity:1;" d="M 270.5625 240.4375 L 272.71875 236.121094 L 267.980469 237.039062 L 264.539062 233.652344 L 263.953125 238.445312 L 259.878906 240.566406 L 270.636719 240.566406 L 270.5625 240.4375 "/>
<path style=" stroke:none;fill-rule:nonzero;fill:rgb(30.979919%,18.429565%,50.979614%);fill-opacity:1;" d="M 354.589844 94.511719 C 345.769531 86.429688 336.84375 70.917969 326 62.78125 C 310.359375 51.042969 298.269531 34.960938 281.265625 24.976562 C 261.980469 13.644531 237.390625 13.023438 216.917969 21.421875 C 201.332031 27.820312 190.90625 35.230469 183.277344 51.664062 C 174.660156 70.21875 167.800781 89.464844 164.722656 109.738281 C 161.195312 132.929688 164.261719 155.683594 158.269531 178.667969 C 152.976562 198.96875 149.503906 219.648438 147.863281 240.566406 L 321.480469 240.566406 C 315.335938 223.367188 312.605469 205.324219 305.21875 188.527344 C 294.28125 163.664062 284.765625 142.09375 281.050781 114.902344 C 279.683594 104.871094 281.371094 83.398438 289.070312 75.898438 C 299.601562 65.648438 319.691406 76.5625 326.808594 85.367188 C 330.59375 90.050781 332.984375 96.21875 337.105469 100.441406 C 342.039062 105.496094 346.546875 106.613281 349.738281 113.195312 C 355.253906 124.574219 358.109375 141.125 341.679688 144.652344 C 327.570312 147.675781 329.816406 134.09375 331.308594 125.332031 C 321.371094 124.714844 318.207031 146.472656 331.484375 154.363281 C 342.804688 161.085938 361.09375 147.53125 364.3125 137.574219 C 368.679688 124.09375 366.015625 104.984375 354.589844 94.511719 "/>
<path style=" stroke:none;fill-rule:nonzero;fill:rgb(27.449036%,17.649841%,50.19989%);fill-opacity:1;" d="M 329.105469 143.605469 C 334.839844 151.636719 345.164062 151.636719 350.898438 145.898438 C 360.074219 137.863281 357.78125 124.09375 355.488281 112.621094 C 352.046875 103.441406 339.425781 100 337.136719 95.40625 C 329.105469 71.3125 305.011719 54.097656 280.925781 64.425781 C 259.125 74.753906 278.628906 100 270.601562 116.0625 C 266.011719 125.242188 248.804688 122.945312 246.511719 134.421875 C 240.777344 155.082031 252.246094 172.289062 262.570312 189.503906 C 269.453125 199.828125 261.421875 212.453125 251.097656 215.898438 C 239.753906 219.679688 227.191406 217.089844 215.152344 214.507812 C 197.960938 210.820312 181.832031 207.128906 171.792969 221.9375 C 166.917969 226.8125 154.023438 235.886719 148.625 232.203125 C 148.339844 234.984375 148.078125 237.773438 147.863281 240.566406 L 321.480469 240.566406 C 315.335938 223.367188 312.605469 205.324219 305.21875 188.527344 C 294.28125 163.664062 284.765625 142.09375 281.050781 114.902344 C 279.683594 104.871094 281.371094 83.398438 289.070312 75.898438 C 299.601562 65.648438 319.691406 76.5625 326.808594 85.367188 C 330.59375 90.050781 332.984375 96.21875 337.105469 100.441406 C 342.039062 105.496094 346.546875 106.613281 349.738281 113.195312 C 355.253906 124.574219 358.109375 141.125 341.679688 144.652344 C 327.570312 147.675781 329.816406 134.09375 331.308594 125.332031 C 330.582031 125.285156 329.894531 125.375 329.242188 125.554688 C 323.789062 129.289062 325.171875 137.703125 329.105469 143.605469 "/>
<path style=" stroke:none;fill-rule:nonzero;fill:rgb(97.648621%,68.629456%,12.548828%);fill-opacity:1;" d="M 233.894531 172.351562 L 237.191406 168.824219 L 241.960938 169.539062 L 239.628906 165.316406 L 241.777344 161.003906 L 237.039062 161.917969 L 233.601562 158.535156 L 233.007812 163.324219 L 228.730469 165.554688 L 233.101562 167.59375 L 233.894531 172.351562 "/>
<path style=" stroke:none;fill-rule:nonzero;fill:rgb(97.648621%,68.629456%,12.548828%);fill-opacity:1;" d="M 226.621094 114.054688 L 229.914062 110.53125 L 234.6875 111.238281 L 232.347656 107.015625 L 234.5 102.695312 L 229.765625 103.617188 L 226.320312 100.234375 L 225.734375 105.023438 L 221.453125 107.25 L 225.824219 109.292969 L 226.621094 114.054688 "/>
<path style=" stroke:none;fill-rule:nonzero;fill:rgb(97.648621%,68.629456%,12.548828%);fill-opacity:1;" d="M 272.679688 137.265625 C 270.535156 138.730469 267.953125 139.585938 265.164062 139.585938 C 257.800781 139.585938 251.832031 133.613281 251.832031 126.25 C 251.832031 124.804688 252.0625 123.414062 252.488281 122.113281 C 248.972656 124.511719 246.667969 128.554688 246.667969 133.128906 C 246.667969 140.5 252.636719 146.472656 260 146.472656 C 265.921875 146.472656 270.933594 142.609375 272.679688 137.265625 "/>
<path style=" stroke:none;fill-rule:nonzero;fill:rgb(97.648621%,68.629456%,12.548828%);fill-opacity:1;" d="M 257.441406 73.3125 L 249.296875 65.316406 L 247.902344 76.644531 L 237.777344 81.917969 L 248.117188 86.75 L 250 98.007812 L 257.789062 89.664062 L 269.078125 91.351562 L 263.554688 81.359375 L 268.644531 71.140625 L 257.441406 73.3125 "/>
<path style=" stroke:none;fill-rule:nonzero;fill:rgb(97.648621%,68.629456%,12.548828%);fill-opacity:1;" d="M 243.242188 227.105469 L 251.03125 218.753906 L 262.320312 220.445312 L 256.789062 210.453125 L 261.882812 200.238281 L 250.675781 202.410156 L 242.539062 194.40625 L 241.140625 205.738281 L 231.011719 211.011719 L 241.355469 215.839844 L 243.242188 227.105469 "/>
<path style=" stroke:none;fill-rule:nonzero;fill:rgb(97.648621%,68.629456%,12.548828%);fill-opacity:1;" d="M 228.070312 52.636719 C 225.933594 54.105469 223.34375 54.960938 220.558594 54.960938 C 213.191406 54.960938 207.222656 48.984375 207.222656 41.621094 C 207.222656 40.175781 207.460938 38.789062 207.886719 37.484375 C 204.371094 39.886719 202.058594 43.925781 202.058594 48.503906 C 202.058594 55.871094 208.03125 61.84375 215.398438 61.84375 C 221.316406 61.84375 226.332031 57.980469 228.070312 52.636719 "/>
<path style=" stroke:none;fill-rule:nonzero;fill:rgb(97.648621%,68.629456%,12.548828%);fill-opacity:1;" d="M 193.355469 87.425781 L 196.652344 83.894531 L 201.421875 84.609375 L 199.085938 80.386719 L 201.238281 76.070312 L 196.503906 76.988281 L 193.0625 73.605469 L 192.472656 78.394531 L 188.195312 80.625 L 192.5625 82.667969 L 193.355469 87.425781 "/>
<path style=" stroke:none;fill-rule:nonzero;fill:rgb(97.648621%,68.629456%,12.548828%);fill-opacity:1;" d="M 275.652344 193.230469 C 281.578125 193.230469 286.585938 189.371094 288.324219 184.027344 C 286.191406 185.488281 283.601562 186.34375 280.820312 186.34375 C 273.449219 186.34375 267.480469 180.378906 267.480469 173.007812 C 267.480469 171.5625 267.71875 170.175781 268.144531 168.871094 C 264.625 171.273438 262.320312 175.3125 262.320312 179.894531 C 262.320312 187.257812 268.289062 193.230469 275.652344 193.230469 "/>
<path style=" stroke:none;fill-rule:nonzero;fill:rgb(97.648621%,68.629456%,12.548828%);fill-opacity:1;" d="M 362.003906 111.832031 L 358.828125 112.445312 L 356.519531 110.179688 L 356.125 113.390625 L 353.25 114.886719 L 356.183594 116.253906 L 356.714844 119.449219 L 358.925781 117.082031 L 362.125 117.558594 L 360.558594 114.722656 L 362.003906 111.832031 "/>
<path style=" stroke:none;fill-rule:nonzero;fill:rgb(97.648621%,68.629456%,12.548828%);fill-opacity:1;" d="M 289.835938 38.660156 L 293.132812 35.128906 L 295.671875 35.507812 C 293.371094 33.53125 291.007812 31.628906 288.5625 29.828125 L 284.671875 31.859375 L 289.042969 33.894531 L 289.835938 38.660156 "/>
<path style=" stroke:none;fill-rule:nonzero;fill:rgb(97.648621%,68.629456%,12.548828%);fill-opacity:1;" d="M 210.371094 225.320312 L 206.929688 221.9375 L 206.339844 226.722656 L 202.058594 228.953125 L 206.433594 230.992188 L 207.226562 235.753906 L 210.519531 232.226562 L 215.289062 232.941406 L 212.953125 228.71875 L 215.105469 224.398438 L 210.371094 225.320312 "/>
<path style=" stroke:none;fill-rule:nonzero;fill:rgb(97.648621%,68.629456%,12.548828%);fill-opacity:1;" d="M 219.320312 182.59375 C 217.183594 184.054688 214.597656 184.914062 211.808594 184.914062 C 204.445312 184.914062 198.472656 178.941406 198.472656 171.574219 C 198.472656 170.125 198.710938 168.742188 199.136719 167.441406 C 195.621094 169.84375 193.3125 173.878906 193.3125 178.457031 C 193.3125 185.824219 199.285156 191.800781 206.648438 191.800781 C 212.570312 191.800781 217.582031 187.9375 219.320312 182.59375 "/>
<path style=" stroke:none;fill-rule:nonzero;fill:rgb(97.648621%,68.629456%,12.548828%);fill-opacity:1;" d="M 340.019531 84.296875 L 344.390625 86.335938 L 345.183594 91.097656 L 348.316406 87.75 C 346.863281 86.003906 345.390625 84.164062 343.902344 82.277344 L 340.019531 84.296875 "/>
<path style=" stroke:none;fill-rule:nonzero;fill:rgb(97.648621%,68.629456%,12.548828%);fill-opacity:1;" d="M 325.765625 84.167969 L 327.257812 81.183594 L 323.460938 81.917969 C 324.308594 82.667969 325.078125 83.421875 325.765625 84.167969 "/>
<path style=" stroke:none;fill-rule:nonzero;fill:rgb(97.648621%,68.629456%,12.548828%);fill-opacity:1;" d="M 308.847656 57.402344 L 304.109375 58.316406 L 300.671875 54.933594 L 300.078125 59.71875 L 295.800781 61.949219 L 300.167969 63.992188 L 300.96875 68.75 L 304.265625 65.226562 L 309.03125 65.9375 L 306.695312 61.71875 L 308.847656 57.402344 "/>
<path style=" stroke:none;fill-rule:nonzero;fill:rgb(97.648621%,68.629456%,12.548828%);fill-opacity:1;" d="M 174.238281 161.917969 L 170.792969 158.535156 L 170.207031 163.324219 L 165.929688 165.554688 L 170.296875 167.59375 L 171.09375 172.351562 L 174.386719 168.824219 L 179.15625 169.539062 L 176.820312 165.316406 L 178.972656 161.003906 L 174.238281 161.917969 "/>
<path style=" stroke:none;fill-rule:nonzero;fill:rgb(97.648621%,68.629456%,12.548828%);fill-opacity:1;" d="M 157.242188 182.796875 C 156.5625 185.523438 155.917969 188.253906 155.308594 190.992188 L 156.320312 189.914062 L 161.09375 190.625 L 158.753906 186.402344 L 160.910156 182.082031 L 157.242188 182.796875 "/>
<path style=" stroke:none;fill-rule:nonzero;fill:rgb(97.648621%,68.629456%,12.548828%);fill-opacity:1;" d="M 169.085938 215.839844 L 170.972656 227.105469 L 178.761719 218.753906 L 190.050781 220.445312 L 184.519531 210.453125 L 189.617188 200.238281 L 178.410156 202.410156 L 170.269531 194.40625 L 168.871094 205.738281 L 158.75 211.011719 L 169.085938 215.839844 "/>
<path style=" stroke:none;fill-rule:nonzero;fill:rgb(97.648621%,68.629456%,12.548828%);fill-opacity:1;" d="M 167.769531 101.390625 L 172.542969 102.105469 L 170.203125 97.878906 L 172.355469 93.5625 L 167.78125 94.453125 C 167.042969 97.445312 166.386719 100.457031 165.808594 103.496094 L 167.769531 101.390625 "/>
<path style=" stroke:none;fill-rule:nonzero;fill:rgb(97.648621%,68.629456%,12.548828%);fill-opacity:1;" d="M 309.824219 200.761719 L 307.285156 198.261719 L 306.695312 203.054688 L 302.417969 205.285156 L 306.789062 207.324219 L 307.582031 212.085938 L 310.878906 208.558594 L 312.253906 208.765625 C 311.488281 206.082031 310.6875 203.414062 309.824219 200.761719 "/>
<path style=" stroke:none;fill-rule:nonzero;fill:rgb(97.648621%,68.629456%,12.548828%);fill-opacity:1;" d="M 288.953125 165.316406 L 291.105469 161.003906 L 286.367188 161.917969 L 282.925781 158.535156 L 282.335938 163.324219 L 278.054688 165.554688 L 282.429688 167.59375 L 283.222656 172.351562 L 286.519531 168.824219 L 291.285156 169.539062 L 288.953125 165.316406 "/>
<path style=" stroke:none;fill-rule:nonzero;fill:rgb(97.648621%,68.629456%,12.548828%);fill-opacity:1;" d="M 189.5 126.046875 L 191.382812 137.3125 L 199.171875 128.96875 L 210.460938 130.648438 L 204.929688 120.664062 L 210.023438 110.445312 L 198.816406 112.621094 L 190.679688 104.613281 L 189.28125 115.945312 L 179.15625 121.21875 L 189.5 126.046875 "/>
<path style=" stroke:none;fill-rule:nonzero;fill:rgb(97.648621%,68.629456%,12.548828%);fill-opacity:1;" d="M 294.351562 235.753906 L 297.648438 232.226562 L 302.417969 232.941406 L 300.078125 228.71875 L 302.230469 224.398438 L 297.496094 225.320312 L 294.058594 221.9375 L 293.464844 226.722656 L 289.1875 228.953125 L 293.558594 230.992188 L 294.351562 235.753906 "/>
<path style=" stroke:none;fill-rule:nonzero;fill:rgb(97.648621%,68.629456%,12.548828%);fill-opacity:1;" d="M 267.480469 35.882812 C 267.480469 34.4375 267.71875 33.050781 268.144531 31.75 C 264.625 34.148438 262.320312 38.1875 262.320312 42.769531 C 262.320312 50.132812 268.289062 56.105469 275.652344 56.105469 C 281.578125 56.105469 286.585938 52.242188 288.324219 46.898438 C 286.191406 48.363281 283.601562 49.222656 280.820312 49.222656 C 273.449219 49.222656 267.480469 43.246094 267.480469 35.882812 "/>
<path style=" stroke:none;fill-rule:nonzero;fill:rgb(97.648621%,68.629456%,12.548828%);fill-opacity:1;" d="M 280.742188 111.679688 L 280.191406 111.140625 L 279.601562 115.925781 L 275.324219 118.152344 L 279.691406 120.195312 L 280.492188 124.953125 L 282.359375 122.945312 C 281.875 120.3125 281.425781 117.644531 281.050781 114.902344 C 280.917969 113.929688 280.820312 112.84375 280.742188 111.679688 "/>
<path style=" stroke:none;fill-rule:nonzero;fill:rgb(97.648621%,68.629456%,12.548828%);fill-opacity:1;" d="M 216.917969 21.421875 C 215.730469 21.910156 214.578125 22.410156 213.445312 22.917969 L 214.828125 23.558594 L 215.625 28.324219 L 218.917969 24.792969 L 223.691406 25.503906 L 221.351562 21.285156 L 222.242188 19.503906 C 220.441406 20.082031 218.664062 20.710938 216.917969 21.421875 "/>
<path style=" stroke:none;fill-rule:nonzero;fill:rgb(97.648621%,68.629456%,12.548828%);fill-opacity:1;" d="M 243.660156 33.957031 L 240.214844 30.574219 L 239.628906 35.367188 L 235.34375 37.589844 L 239.71875 39.632812 L 240.511719 44.394531 L 243.808594 40.867188 L 248.574219 41.578125 L 246.238281 37.359375 L 248.390625 33.042969 L 243.660156 33.957031 "/>
<path style=" stroke:none;fill-rule:nonzero;fill:rgb(36.079407%,18.818665%,52.549744%);fill-opacity:1;" d="M 228.429688 198.726562 C 227.085938 198.726562 225.65625 198.449219 224.238281 197.972656 C 212.628906 194.347656 201.027344 192.105469 189.421875 192.105469 C 183.082031 192.105469 176.742188 192.773438 170.394531 194.253906 C 169.664062 194.082031 169.175781 193.8125 169.175781 193.382812 C 169.957031 185.773438 171.777344 178 173.085938 170.214844 L 174.386719 168.824219 L 179.15625 169.539062 L 176.820312 165.316406 L 178.972656 161.003906 L 174.238281 161.917969 L 174.21875 161.902344 C 174.570312 158.242188 174.683594 154.589844 174.398438 150.96875 C 171.792969 118.042969 176.660156 89.101562 193.261719 61.421875 C 195.785156 57.144531 198.769531 53.304688 202.132812 49.886719 C 202.824219 56.601562 208.496094 61.84375 215.398438 61.84375 C 221.316406 61.84375 226.332031 57.980469 228.070312 52.636719 C 225.933594 54.105469 223.34375 54.960938 220.558594 54.960938 C 214.332031 54.960938 209.105469 50.695312 207.632812 44.925781 C 216.867188 37.554688 228.148438 32.804688 240.203125 30.671875 L 239.628906 35.367188 L 235.34375 37.589844 L 239.71875 39.632812 L 240.511719 44.394531 L 243.808594 40.867188 L 248.574219 41.578125 L 246.238281 37.359375 L 248.390625 33.042969 L 243.660156 33.957031 L 240.300781 30.660156 C 245.160156 29.808594 250.152344 29.375 255.1875 29.375 C 259.769531 29.375 264.382812 29.730469 268.96875 30.4375 C 277.894531 32.667969 283.566406 40.328125 281.765625 49.1875 C 281.449219 49.210938 281.136719 49.222656 280.820312 49.222656 C 273.449219 49.222656 267.480469 43.246094 267.480469 35.882812 C 267.480469 34.4375 267.71875 33.050781 268.144531 31.75 C 264.625 34.148438 262.320312 38.1875 262.320312 42.769531 C 262.320312 47.367188 264.648438 51.421875 268.183594 53.820312 C 259.316406 54.261719 250.15625 55.011719 248.324219 66.011719 C 247.996094 68.953125 247.949219 71.796875 248.15625 74.578125 L 247.902344 76.644531 L 237.777344 81.917969 L 248.117188 86.75 L 250 98.007812 L 253.726562 94.019531 C 253.835938 94.246094 253.945312 94.46875 254.058594 94.695312 C 255.207031 98.140625 255.207031 103.875 252.914062 105.023438 C 234.554688 114.207031 220.792969 129.121094 223.089844 149.777344 C 223.859375 155.191406 226.328125 160.347656 228.910156 165.460938 L 228.730469 165.554688 L 229.027344 165.695312 C 234.066406 175.671875 239.449219 185.5 233.410156 196.824219 C 232.066406 198.167969 230.332031 198.726562 228.429688 198.726562 M 199.136719 167.441406 C 195.621094 169.84375 193.3125 173.878906 193.3125 178.457031 C 193.3125 185.824219 199.285156 191.800781 206.648438 191.800781 C 212.570312 191.800781 217.582031 187.9375 219.320312 182.59375 C 217.183594 184.054688 214.597656 184.914062 211.808594 184.914062 C 204.445312 184.914062 198.472656 178.941406 198.472656 171.574219 C 198.472656 170.125 198.710938 168.742188 199.136719 167.441406 M 190.679688 104.613281 L 189.28125 115.945312 L 179.15625 121.21875 L 189.5 126.046875 L 191.382812 137.3125 L 199.171875 128.96875 L 210.460938 130.648438 L 204.929688 120.664062 L 210.023438 110.445312 L 198.816406 112.621094 L 190.679688 104.613281 M 226.320312 100.234375 L 225.734375 105.023438 L 221.453125 107.25 L 225.824219 109.292969 L 226.621094 114.054688 L 229.914062 110.53125 L 234.6875 111.238281 L 232.347656 107.015625 L 234.5 102.695312 L 229.765625 103.617188 L 226.320312 100.234375 M 193.0625 73.605469 L 192.472656 78.394531 L 188.195312 80.625 L 192.5625 82.667969 L 193.355469 87.425781 L 196.652344 83.894531 L 201.421875 84.609375 L 199.085938 80.386719 L 201.238281 76.070312 L 196.503906 76.988281 L 193.0625 73.605469 "/>
<path style=" stroke:none;fill-rule:nonzero;fill:rgb(98.039246%,72.158813%,17.248535%);fill-opacity:1;" d="M 229.027344 165.695312 L 228.730469 165.554688 L 228.910156 165.460938 C 228.949219 165.539062 228.992188 165.617188 229.027344 165.695312 "/>
<path style=" stroke:none;fill-rule:nonzero;fill:rgb(98.039246%,72.158813%,17.248535%);fill-opacity:1;" d="M 226.621094 114.054688 L 225.824219 109.292969 L 221.453125 107.25 L 225.734375 105.023438 L 226.320312 100.234375 L 229.765625 103.617188 L 234.5 102.695312 L 232.347656 107.015625 L 234.6875 111.238281 L 229.914062 110.53125 L 226.621094 114.054688 "/>
<path style=" stroke:none;fill-rule:nonzero;fill:rgb(98.039246%,72.158813%,17.248535%);fill-opacity:1;" d="M 250 98.007812 L 248.117188 86.75 L 237.777344 81.917969 L 247.902344 76.644531 L 248.15625 74.578125 C 248.652344 81.324219 250.636719 87.675781 253.726562 94.019531 L 250 98.007812 "/>
<path style=" stroke:none;fill-rule:nonzero;fill:rgb(98.039246%,72.158813%,17.248535%);fill-opacity:1;" d="M 215.398438 61.84375 C 208.496094 61.84375 202.824219 56.601562 202.132812 49.886719 C 203.867188 48.121094 205.707031 46.464844 207.632812 44.925781 C 209.105469 50.695312 214.332031 54.960938 220.558594 54.960938 C 223.34375 54.960938 225.933594 54.105469 228.070312 52.636719 C 226.332031 57.980469 221.316406 61.84375 215.398438 61.84375 "/>
<path style=" stroke:none;fill-rule:nonzero;fill:rgb(98.039246%,72.158813%,17.248535%);fill-opacity:1;" d="M 193.355469 87.425781 L 192.5625 82.667969 L 188.195312 80.625 L 192.472656 78.394531 L 193.0625 73.605469 L 196.503906 76.988281 L 201.238281 76.070312 L 199.085938 80.386719 L 201.421875 84.609375 L 196.652344 83.894531 L 193.355469 87.425781 "/>
<path style=" stroke:none;fill-rule:nonzero;fill:rgb(98.039246%,72.158813%,17.248535%);fill-opacity:1;" d="M 206.648438 191.800781 C 199.285156 191.800781 193.3125 185.824219 193.3125 178.457031 C 193.3125 173.878906 195.621094 169.84375 199.136719 167.441406 C 198.710938 168.742188 198.472656 170.125 198.472656 171.574219 C 198.472656 178.941406 204.445312 184.914062 211.808594 184.914062 C 214.597656 184.914062 217.183594 184.054688 219.320312 182.59375 C 217.582031 187.9375 212.570312 191.800781 206.648438 191.800781 "/>
<path style=" stroke:none;fill-rule:nonzero;fill:rgb(98.039246%,72.158813%,17.248535%);fill-opacity:1;" d="M 173.085938 170.214844 C 173.550781 167.445312 173.957031 164.671875 174.21875 161.902344 L 174.238281 161.917969 L 178.972656 161.003906 L 176.820312 165.316406 L 179.15625 169.539062 L 174.386719 168.824219 L 173.085938 170.214844 "/>
<path style=" stroke:none;fill-rule:nonzero;fill:rgb(98.039246%,72.158813%,17.248535%);fill-opacity:1;" d="M 191.382812 137.3125 L 189.5 126.046875 L 179.15625 121.21875 L 189.28125 115.945312 L 190.679688 104.613281 L 198.816406 112.621094 L 210.023438 110.445312 L 204.929688 120.664062 L 210.460938 130.648438 L 199.171875 128.96875 L 191.382812 137.3125 "/>
<path style=" stroke:none;fill-rule:nonzero;fill:rgb(98.039246%,72.158813%,17.248535%);fill-opacity:1;" d="M 268.183594 53.820312 C 264.648438 51.421875 262.320312 47.367188 262.320312 42.769531 C 262.320312 38.1875 264.625 34.148438 268.144531 31.75 C 267.71875 33.050781 267.480469 34.4375 267.480469 35.882812 C 267.480469 43.246094 273.449219 49.222656 280.820312 49.222656 C 281.136719 49.222656 281.449219 49.210938 281.765625 49.1875 C 281.710938 49.4375 281.65625 49.695312 281.59375 49.945312 C 280.441406 52.238281 277.003906 53.390625 274.707031 53.390625 C 272.632812 53.621094 270.417969 53.710938 268.183594 53.820312 "/>
<path style=" stroke:none;fill-rule:nonzero;fill:rgb(98.039246%,72.158813%,17.248535%);fill-opacity:1;" d="M 240.511719 44.394531 L 239.71875 39.632812 L 235.34375 37.589844 L 239.628906 35.367188 L 240.203125 30.671875 C 240.238281 30.667969 240.265625 30.664062 240.300781 30.660156 L 243.660156 33.957031 L 248.390625 33.042969 L 246.238281 37.359375 L 248.574219 41.578125 L 243.808594 40.867188 L 240.511719 44.394531 "/>
<path style=" stroke:none;fill-rule:nonzero;fill:rgb(54.508972%,24.708557%,14.898682%);fill-opacity:1;" d="M 151.707031 209.332031 C 151.742188 209.105469 152.199219 209.542969 152.570312 209.707031 C 152.765625 209.824219 153.441406 210.066406 154.132812 210.332031 C 154.824219 210.59375 155.636719 210.90625 156.644531 211.21875 C 157.640625 211.539062 158.6875 211.933594 159.933594 212.28125 C 161.179688 212.644531 162.527344 213.035156 163.96875 213.453125 C 165.429688 213.855469 167.035156 214.226562 168.699219 214.652344 C 169.542969 214.851562 170.390625 215.085938 171.289062 215.277344 C 172.1875 215.46875 173.109375 215.660156 174.046875 215.851562 C 175.9375 216.230469 177.875 216.699219 179.941406 217.050781 C 182.015625 217.40625 184.152344 217.769531 186.355469 218.144531 C 188.546875 218.566406 190.863281 218.796875 193.207031 219.128906 C 195.558594 219.417969 197.945312 219.808594 200.410156 220.039062 C 202.882812 220.273438 205.390625 220.519531 207.933594 220.761719 C 209.207031 220.878906 210.488281 221.019531 211.777344 221.117188 C 213.074219 221.191406 214.375 221.273438 215.6875 221.347656 C 218.308594 221.503906 220.945312 221.664062 223.601562 221.824219 C 226.253906 222.003906 228.9375 221.980469 231.617188 222.070312 C 234.300781 222.136719 236.980469 222.199219 239.65625 222.269531 C 242.332031 222.308594 245.003906 222.226562 247.65625 222.214844 C 252.964844 222.15625 258.195312 222.15625 263.261719 221.851562 C 268.332031 221.59375 273.238281 221.460938 277.894531 221.132812 C 282.554688 220.769531 286.953125 220.425781 291.015625 220.101562 C 293.050781 219.929688 295.003906 219.804688 296.859375 219.625 C 298.710938 219.417969 300.464844 219.222656 302.117188 219.039062 C 305.421875 218.671875 308.300781 218.347656 310.671875 218.082031 C 312.238281 217.902344 313.585938 217.753906 314.691406 217.632812 C 314.691406 217.632812 317.609375 226.507812 320.859375 232.171875 C 326.085938 241.28125 332.539062 243.074219 332.539062 243.074219 C 332.539062 243.074219 326.019531 246.375 315.648438 247.296875 C 313.191406 247.703125 310.214844 248.191406 306.792969 248.761719 C 305.085938 249.046875 303.269531 249.347656 301.347656 249.660156 C 299.425781 249.953125 297.382812 250.199219 295.269531 250.484375 C 291.03125 251.046875 286.433594 251.652344 281.578125 252.296875 C 276.707031 252.898438 271.527344 253.320312 266.195312 253.871094 C 260.867188 254.472656 255.304688 254.777344 249.664062 255.136719 C 246.839844 255.308594 244.007812 255.535156 241.140625 255.652344 C 238.269531 255.734375 235.386719 255.820312 232.5 255.910156 C 229.617188 255.964844 226.746094 256.132812 223.859375 256.097656 C 220.972656 256.085938 218.097656 256.066406 215.246094 256.046875 C 213.820312 256.039062 212.398438 256.035156 210.984375 256.027344 C 209.566406 255.996094 208.152344 255.917969 206.746094 255.863281 C 203.9375 255.746094 201.164062 255.632812 198.433594 255.519531 C 195.707031 255.410156 192.996094 255.132812 190.359375 254.949219 C 187.71875 254.71875 185.144531 254.59375 182.617188 254.265625 C 180.089844 253.980469 177.632812 253.699219 175.25 253.425781 C 172.878906 253.15625 170.554688 252.746094 168.34375 252.421875 C 167.238281 252.257812 166.148438 252.089844 165.089844 251.929688 C 164.027344 251.757812 162.976562 251.542969 161.964844 251.355469 C 159.921875 250.964844 158 250.628906 156.175781 250.238281 C 154.335938 249.820312 152.621094 249.429688 151.03125 249.066406 C 149.449219 248.714844 147.929688 248.269531 146.59375 247.925781 C 145.269531 247.585938 144.019531 247.210938 142.929688 246.875 C 141.835938 246.535156 140.988281 246.292969 139.976562 245.925781 C 139.492188 245.757812 139.070312 245.609375 138.710938 245.480469 C 138.527344 245.417969 144.421875 242.1875 146.855469 232.441406 C 148.0625 227.605469 149.484375 221.9375 151.707031 209.332031 "/>
<path style=" stroke:none;fill-rule:nonzero;fill:rgb(65.489197%,26.669312%,14.118958%);fill-opacity:1;" d="M 210.367188 247.601562 C 190.503906 247.601562 171.75 240.59375 153.640625 233.503906 C 154.675781 229.34375 155.910156 224.273438 157.789062 213.625 C 157.796875 213.585938 157.816406 213.570312 157.847656 213.570312 C 157.976562 213.570312 158.289062 213.84375 158.554688 213.964844 C 158.726562 214.0625 159.332031 214.277344 159.945312 214.511719 C 160.554688 214.75 161.273438 215.023438 162.171875 215.304688 C 163.058594 215.585938 163.980469 215.933594 165.09375 216.246094 C 166.203125 216.570312 167.394531 216.917969 168.675781 217.289062 C 169.96875 217.644531 171.394531 217.96875 172.875 218.347656 C 173.625 218.527344 174.378906 218.734375 175.171875 218.910156 C 175.96875 219.074219 176.785156 219.25 177.621094 219.417969 C 179.296875 219.75 181.019531 220.167969 182.851562 220.484375 C 184.695312 220.796875 186.59375 221.121094 188.546875 221.453125 C 190.496094 221.824219 192.546875 222.03125 194.628906 222.320312 C 196.714844 222.582031 198.835938 222.933594 201.023438 223.128906 C 203.21875 223.339844 205.445312 223.554688 207.707031 223.769531 C 208.835938 223.875 209.972656 224.003906 211.113281 224.089844 C 212.265625 224.15625 213.425781 224.222656 214.585938 224.296875 C 216.914062 224.433594 219.257812 224.574219 221.613281 224.714844 C 223.96875 224.878906 226.351562 224.855469 228.730469 224.9375 C 231.113281 224.996094 233.492188 225.054688 235.863281 225.113281 C 236.328125 225.117188 236.789062 225.121094 237.25 225.121094 C 239.160156 225.121094 241.070312 225.070312 242.96875 225.0625 C 247.675781 225.007812 252.324219 225.015625 256.820312 224.738281 C 257.242188 224.722656 257.65625 224.703125 258.074219 224.6875 C 258.328125 227.46875 257.835938 230.074219 255.1875 231.398438 C 250.613281 233.480469 245.867188 233.859375 241.089844 233.859375 C 239.710938 233.859375 238.332031 233.828125 236.949219 233.796875 C 235.574219 233.765625 234.195312 233.734375 232.820312 233.734375 C 228.667969 233.734375 224.550781 234.023438 220.5625 235.472656 C 215.472656 237.511719 227.695312 245.664062 222.605469 246.675781 C 218.472656 247.3125 214.398438 247.601562 210.367188 247.601562 "/>
<path style=" stroke:none;fill-rule:nonzero;fill:rgb(48.239136%,18.818665%,12.939453%);fill-opacity:1;" d="M 320.859375 232.171875 C 317.609375 226.507812 314.691406 217.632812 314.691406 217.632812 C 313.585938 217.753906 312.238281 217.902344 310.671875 218.082031 C 308.300781 218.347656 305.421875 218.671875 302.117188 219.039062 C 301.527344 219.101562 300.90625 219.171875 300.289062 219.238281 C 306.5625 224.0625 313.011719 228.714844 307.308594 232.792969 C 287.808594 246.558594 229.007812 231.355469 240.777344 239.679688 C 247.980469 249.289062 262.425781 243.550781 249.949219 247.707031 C 214.769531 256.242188 176.621094 254.851562 143.785156 239.875 C 141.28125 243.921875 138.585938 245.4375 138.710938 245.480469 C 139.070312 245.609375 139.492188 245.757812 139.976562 245.925781 C 140.988281 246.292969 141.835938 246.535156 142.929688 246.875 C 144.019531 247.210938 145.269531 247.585938 146.59375 247.925781 C 147.929688 248.269531 149.449219 248.714844 151.03125 249.066406 C 152.617188 249.429688 154.335938 249.820312 156.175781 250.238281 C 158 250.628906 159.921875 250.964844 161.964844 251.355469 C 162.976562 251.542969 164.027344 251.757812 165.089844 251.933594 C 166.148438 252.089844 167.238281 252.257812 168.34375 252.421875 C 170.554688 252.746094 172.878906 253.15625 175.25 253.425781 C 177.632812 253.699219 180.089844 253.980469 182.617188 254.265625 C 185.144531 254.59375 187.71875 254.71875 190.359375 254.949219 C 192.996094 255.132812 195.707031 255.410156 198.433594 255.519531 C 201.164062 255.632812 203.9375 255.746094 206.746094 255.863281 C 208.152344 255.917969 209.566406 255.996094 210.984375 256.027344 C 212.398438 256.035156 213.820312 256.039062 215.246094 256.046875 C 218.097656 256.066406 220.972656 256.085938 223.859375 256.097656 C 226.746094 256.132812 229.617188 255.964844 232.507812 255.910156 C 235.386719 255.820312 238.269531 255.734375 241.140625 255.652344 C 244.007812 255.535156 246.839844 255.308594 249.664062 255.136719 C 255.304688 254.777344 260.867188 254.472656 266.195312 253.871094 C 271.527344 253.320312 276.707031 252.898438 281.578125 252.296875 C 286.433594 251.652344 291.03125 251.046875 295.269531 250.484375 C 297.382812 250.199219 299.425781 249.953125 301.347656 249.660156 C 303.269531 249.347656 305.085938 249.046875 306.792969 248.761719 C 310.214844 248.191406 313.191406 247.703125 315.648438 247.296875 C 326.019531 246.375 332.539062 243.074219 332.539062 243.074219 C 332.539062 243.074219 326.085938 241.28125 320.859375 232.171875 "/>
</g>
</svg>
